<svg version="1.2" xmlns="http://www.w3.org/2000/svg" viewBox="0 0 160 160" width="160" height="160">
	<title>WOW Logo-ai</title>
	<style>
		.s0 {
			fill: #ffffff
		}

		.s1 {
			fill: #4c9cf2
		}

		.s2 {
			fill: #193e75
		}

		.s3 {
			fill: #1a1a1a
		}
	</style>
	<g>
		<g>
			<path id="&lt;Compound Path&gt;" class="s0"
				d="m80 136.4c-40.3 0-62.3-24.8-62.3-55.3 0-30.6 22-55.4 62.3-55.4 40.3 0 62.3 24.8 62.3 55.4 0 30.5-22 55.3-62.3 55.3z" />
		</g>
		<g>
			<path id="&lt;Path&gt;" class="s1"
				d="m80 24.7c40.3 0 62.3 24.8 62.3 55.4h17.3v-79.7l-23.3 23.3c-14.4-14.4-34.3-23.3-56.3-23.3-22 0-41.9 8.9-56.3 23.3l-23.3-23.3v79.7h17.3c0-30.6 22-55.4 62.3-55.4z" />
			<path id="&lt;Path&gt;" class="s2"
				d="m142.3 80.1c0 30.5-22 55.3-62.3 55.3-40.3 0-62.3-24.8-62.3-55.3h-17.3c0 45.5 34.1 79.6 79.6 79.6 45.5 0 79.6-34.1 79.6-79.6z" />
			<path id="&lt;Path&gt;" class="s3"
				d="m51.4 80.1c0-2.7 4.8-4.8 10.7-4.9-1.4-9.1-6.9-15.9-13.4-15.9-7.7 0-13.9 9.3-13.9 20.8 0 11.4 6.2 20.7 13.9 20.7 6.5 0 12-6.8 13.4-15.9-5.9-0.1-10.7-2.2-10.7-4.8z" />
			<path id="&lt;Path&gt;" class="s3"
				d="m113.9 80.1c0-2.7 4.8-4.8 10.7-4.9-1.4-9.1-6.9-15.9-13.4-15.9-7.7 0-13.9 9.3-13.9 20.8 0 11.4 6.2 20.7 13.9 20.7 6.5 0 12-6.8 13.4-15.9-5.9-0.1-10.7-2.2-10.7-4.8z" />
		</g>
	</g>
</svg>